<?xml version="1.0" standalone="no"?>
<!DOCTYPE svg PUBLIC "-//W3C//DTD SVG 20010904//EN"
 "http://www.w3.org/TR/2001/REC-SVG-20010904/DTD/svg10.dtd">
<svg version="1.0" xmlns="http://www.w3.org/2000/svg"
 width="1300.000000pt" height="1300.000000pt" viewBox="0 0 1300.000000 1300.000000"
 preserveAspectRatio="xMidYMid meet">

<g transform="translate(0.000000,1300.000000) scale(0.100000,-0.100000)"
fill="#000000" stroke="none">
<path d="M6110 11088 c-436 -37 -885 -142 -1300 -305 -506 -198 -1032 -527
-1414 -883 -34 -32 -80 -75 -104 -96 -23 -21 -40 -44 -38 -50 3 -7 0 -11 -7
-8 -12 4 -123 -111 -243 -252 -266 -313 -466 -616 -640 -972 -231 -470 -375
-966 -440 -1507 -21 -176 -30 -685 -15 -868 12 -145 53 -446 72 -538 l11 -51
27 24 26 23 -22 -26 c-13 -14 -23 -34 -23 -45 0 -36 78 -325 129 -481 289
-877 849 -1660 1588 -2220 113 -85 329 -232 424 -288 177 -102 406 -220 529
-270 30 -13 93 -38 140 -58 261 -106 819 -259 896 -244 13 2 21 1 19 -3 -6 -9
22 -15 176 -35 398 -51 880 -47 1272 10 56 8 113 17 126 20 23 6 23 6 5 28
l-19 22 25 -22 25 -22 97 20 c468 94 967 286 1393 536 158 93 335 210 421 278
29 22 78 60 110 85 78 60 276 234 342 300 l53 53 -38 41 -38 41 42 -39 41 -38
38 38 c746 762 1211 1786 1294 2853 13 169 13 558 0 716 -49 598 -201 1151
-461 1680 -417 850 -1106 1565 -1940 2015 -558 301 -1129 473 -1773 535 -175
17 -627 19 -806 3z m1300 -101 c0 -2 -10 -12 -22 -23 l-23 -19 19 23 c18 21
26 27 26 19z m-1779 -24 c13 -16 12 -17 -3 -4 -17 13 -22 21 -14 21 2 0 10 -8
17 -17z m1699 -56 c0 -2 -10 -12 -22 -23 l-23 -19 19 23 c18 21 26 27 26 19z
m-1610 -32 c13 -14 21 -25 18 -25 -2 0 -15 11 -28 25 -13 14 -21 25 -18 25 2
0 15 -11 28 -25z m1530 -48 c0 -2 -10 -12 -22 -23 l-23 -19 19 23 c18 21 26
27 26 19z m-1459 -24 c13 -16 12 -17 -3 -4 -17 13 -22 21 -14 21 2 0 10 -8 17
-17z m974 -43 c814 -58 1540 -314 2193 -774 906 -638 1540 -1626 1736 -2702
78 -425 92 -792 50 -1232 l-16 -164 33 -36 34 -37 -36 33 -37 34 -6 -49 c-17
-118 -69 -351 -110 -493 -190 -660 -497 -1206 -970 -1731 l-114 -126 19 -22
19 -21 -21 19 c-22 19 -22 19 -171 -115 -579 -519 -1234 -857 -1965 -1015
-320 -69 -559 -93 -908 -93 -266 1 -398 10 -635 45 -1087 162 -2077 751 -2756
1639 -395 515 -680 1151 -794 1770 -29 157 -24 150 -73 104 l-42 -39 39 42
c22 23 42 40 46 38 4 -2 1 28 -5 68 -54 312 -54 827 1 1207 140 973 617 1873
1344 2536 625 569 1384 936 2210 1068 302 48 656 66 935 46z m2975 -1053 c0
-2 -12 -14 -27 -28 l-28 -24 24 28 c23 25 31 32 31 24z m-6395 -47 c10 -11 16
-20 13 -20 -3 0 -13 9 -23 20 -10 11 -16 20 -13 20 3 0 13 -9 23 -20z m6315
-33 c0 -2 -12 -14 -27 -28 l-28 -24 24 28 c23 25 31 32 31 24z m-70 -71 c0 -2
-8 -10 -17 -17 -16 -13 -17 -12 -4 4 13 16 21 21 21 13z m1430 -2269 c0 -2
-12 -14 -27 -28 l-28 -24 24 28 c23 25 31 32 31 24z m-8934 -89 l29 -33 -32
29 c-18 17 -33 31 -33 33 0 8 8 1 36 -29z m8864 19 c0 -2 -12 -14 -27 -28
l-28 -24 24 28 c23 25 31 32 31 24z m-8784 -99 l29 -33 -32 29 c-18 17 -33 31
-33 33 0 8 8 1 36 -29z m8704 19 c0 -2 -15 -16 -32 -33 l-33 -29 29 33 c28 30
36 37 36 29z m-20 -1372 c13 -14 21 -25 18 -25 -2 0 -15 11 -28 25 -13 14 -21
25 -18 25 2 0 15 -11 28 -25z m-8690 -48 c0 -2 -19 -21 -42 -42 l-43 -40 40
43 c36 39 45 47 45 39z m8770 -32 c13 -14 21 -25 18 -25 -2 0 -15 11 -28 25
-13 14 -21 25 -18 25 2 0 15 -11 28 -25z m-7450 -2238 c0 -2 -10 -12 -22 -23
l-23 -19 19 23 c18 21 26 27 26 19z m6145 -67 c10 -11 16 -20 13 -20 -3 0 -13
9 -23 20 -10 11 -16 20 -13 20 3 0 13 -9 23 -20z m-6205 7 c0 -2 -12 -14 -27
-28 l-28 -24 24 28 c23 25 31 32 31 24z m-80 -81 c0 -2 -8 -10 -17 -17 -16
-13 -17 -12 -4 4 13 16 21 21 21 13z m-40 -40 c0 -2 -8 -10 -17 -17 -16 -13
-17 -12 -4 4 13 16 21 21 21 13z m3775 -1036 c10 -11 16 -20 13 -20 -3 0 -13
9 -23 20 -10 11 -16 20 -13 20 3 0 13 -9 23 -20z m-1085 6 c0 -2 -8 -10 -17
-17 -16 -13 -17 -12 -4 4 13 16 21 21 21 13z m1165 -86 c10 -11 16 -20 13 -20
-3 0 -13 9 -23 20 -10 11 -16 20 -13 20 3 0 13 -9 23 -20z m80 -80 c10 -11 16
-20 13 -20 -3 0 -13 9 -23 20 -10 11 -16 20 -13 20 3 0 13 -9 23 -20z m-1405
6 c0 -2 -8 -10 -17 -17 -16 -13 -17 -12 -4 4 13 16 21 21 21 13z"/>
<path d="M3180 8438 c-62 -32 -92 -85 -87 -156 4 -59 25 -94 77 -129 33 -23
37 -23 359 -23 179 0 331 -4 338 -8 12 -8 113 -208 853 -1697 709 -1429 650
-1314 694 -1349 l38 -31 1386 -3 c954 -2 1398 0 1424 8 20 5 50 26 67 45 76
87 54 207 -46 259 -29 15 -151 16 -1347 16 -1195 0 -1316 1 -1331 16 -9 9 -65
116 -124 238 -60 121 -312 631 -561 1131 -249 501 -529 1065 -622 1254 -93
190 -182 360 -196 379 -54 70 -61 72 -492 72 -380 0 -386 0 -430 -22z m2300
-2972 c0 -2 -8 -10 -17 -17 -16 -13 -17 -12 -4 4 13 16 21 21 21 13z"/>
<path d="M4692 8179 c-47 -24 -76 -58 -97 -119 l-14 -41 66 -127 c152 -291
198 -362 252 -383 14 -6 798 -9 1968 -9 1778 0 1948 2 1980 16 60 29 86 75
208 368 54 130 57 140 46 177 -15 51 -56 98 -106 120 -38 18 -125 19 -2150 19
l-2110 0 -43 -21z m803 -649 c10 -11 16 -20 13 -20 -3 0 -13 9 -23 20 -10 11
-16 20 -13 20 3 0 13 -9 23 -20z"/>
<path d="M5150 7243 c-67 -24 -130 -101 -130 -160 0 -16 41 -100 101 -208 56
-99 115 -203 131 -232 55 -99 15 -93 653 -93 l558 0 -19 23 -19 22 26 -22 25
-23 1008 0 c974 0 1008 1 1045 19 54 28 82 75 177 300 80 191 84 204 74 241
-14 51 -54 98 -105 121 -38 18 -112 19 -1775 18 -954 0 -1742 -3 -1750 -6z
m665 -33 c10 -11 16 -20 13 -20 -3 0 -13 9 -23 20 -10 11 -16 20 -13 20 3 0
13 -9 23 -20z m1425 16 c0 -2 -8 -10 -17 -17 -16 -13 -17 -12 -4 4 13 16 21
21 21 13z m-1345 -96 c10 -11 16 -20 13 -20 -3 0 -13 9 -23 20 -10 11 -16 20
-13 20 3 0 13 -9 23 -20z m1265 16 c0 -2 -8 -10 -17 -17 -16 -13 -17 -12 -4 4
13 16 21 21 21 13z m-1185 -96 c10 -11 16 -20 13 -20 -3 0 -13 9 -23 20 -10
11 -16 20 -13 20 3 0 13 -9 23 -20z m80 -80 c10 -11 16 -20 13 -20 -3 0 -13 9
-23 20 -10 11 -16 20 -13 20 3 0 13 -9 23 -20z m945 16 c0 -2 -8 -10 -17 -17
-16 -13 -17 -12 -4 4 13 16 21 21 21 13z m-865 -96 c10 -11 16 -20 13 -20 -3
0 -13 9 -23 20 -10 11 -16 20 -13 20 3 0 13 -9 23 -20z m785 17 c0 -2 -10 -12
-22 -23 l-23 -19 19 23 c18 21 26 27 26 19z m-705 -97 c10 -11 16 -20 13 -20
-3 0 -13 9 -23 20 -10 11 -16 20 -13 20 3 0 13 -9 23 -20z m625 16 c0 -2 -8
-10 -17 -17 -16 -13 -17 -12 -4 4 13 16 21 21 21 13z m-545 -96 c10 -11 16
-20 13 -20 -3 0 -13 9 -23 20 -10 11 -16 20 -13 20 3 0 13 -9 23 -20z m465 16
c0 -2 -8 -10 -17 -17 -16 -13 -17 -12 -4 4 13 16 21 21 21 13z m-385 -96 c10
-11 16 -20 13 -20 -3 0 -13 9 -23 20 -10 11 -16 20 -13 20 3 0 13 -9 23 -20z
m305 16 c0 -2 -8 -10 -17 -17 -16 -13 -17 -12 -4 4 13 16 21 21 21 13z m-80
-80 c0 -2 -8 -10 -17 -17 -16 -13 -17 -12 -4 4 13 16 21 21 21 13z"/>
<path d="M5610 6301 c-89 -18 -160 -92 -160 -166 0 -21 79 -180 180 -361 10
-16 25 -45 35 -63 l17 -33 26 23 27 24 -22 -26 c-29 -32 -29 -40 3 -70 l26
-24 834 -3 c672 -2 834 0 828 10 -6 10 -4 11 7 1 10 -10 100 -13 381 -13 419
0 427 1 477 74 16 22 67 132 115 244 84 197 86 204 75 245 -16 61 -82 122
-149 136 -57 12 -2638 14 -2700 2z m670 -35 c0 -2 -8 -10 -17 -17 -16 -13 -17
-12 -4 4 13 16 21 21 21 13z m495 -16 c10 -11 16 -20 13 -20 -3 0 -13 9 -23
20 -10 11 -16 20 -13 20 3 0 13 -9 23 -20z m-575 -64 c0 -2 -8 -10 -17 -17
-16 -13 -17 -12 -4 4 13 16 21 21 21 13z m655 -16 c10 -11 16 -20 13 -20 -3 0
-13 9 -23 20 -10 11 -16 20 -13 20 3 0 13 -9 23 -20z m-735 -64 c0 -2 -8 -10
-17 -17 -16 -13 -17 -12 -4 4 13 16 21 21 21 13z m815 -16 c10 -11 16 -20 13
-20 -3 0 -13 9 -23 20 -10 11 -16 20 -13 20 3 0 13 -9 23 -20z m-895 -64 c0
-2 -8 -10 -17 -17 -16 -13 -17 -12 -4 4 13 16 21 21 21 13z m975 -16 c10 -11
16 -20 13 -20 -3 0 -13 9 -23 20 -10 11 -16 20 -13 20 3 0 13 -9 23 -20z
m-1055 -63 c0 -2 -10 -12 -22 -23 l-23 -19 19 23 c18 21 26 27 26 19z m1135
-17 c10 -11 16 -20 13 -20 -3 0 -13 9 -23 20 -10 11 -16 20 -13 20 3 0 13 -9
23 -20z m-1215 -64 c0 -2 -8 -10 -17 -17 -16 -13 -17 -12 -4 4 13 16 21 21 21
13z m1295 -16 c10 -11 16 -20 13 -20 -3 0 -13 9 -23 20 -10 11 -16 20 -13 20
3 0 13 -9 23 -20z m-1375 -64 c0 -2 -8 -10 -17 -17 -16 -13 -17 -12 -4 4 13
16 21 21 21 13z m1455 -16 c10 -11 16 -20 13 -20 -3 0 -13 9 -23 20 -10 11
-16 20 -13 20 3 0 13 -9 23 -20z m80 -80 c10 -11 16 -20 13 -20 -3 0 -13 9
-23 20 -10 11 -16 20 -13 20 3 0 13 -9 23 -20z"/>
<path d="M5292 4850 c-192 -51 -348 -192 -410 -374 -36 -104 -41 -246 -14
-348 99 -360 499 -536 833 -368 181 92 304 280 317 487 6 108 -10 189 -60 293
-118 246 -403 379 -666 310z m248 -331 c199 -90 205 -370 11 -469 -102 -51
-216 -33 -299 48 -49 48 -82 122 -82 181 0 92 68 198 153 240 57 27 156 28
217 0z m-49 -706 c13 -16 12 -17 -3 -4 -10 7 -18 15 -18 17 0 8 8 3 21 -13z
m64 -63 c10 -11 16 -20 13 -20 -3 0 -13 9 -23 20 -10 11 -16 20 -13 20 3 0 13
-9 23 -20z"/>
<path d="M7981 4859 c-215 -42 -400 -215 -457 -426 -20 -75 -19 -221 1 -298
49 -187 199 -349 378 -409 305 -102 637 61 743 364 52 151 41 314 -32 460 -45
90 -156 202 -244 248 -119 62 -266 85 -389 61z m213 -336 c58 -21 127 -92 144
-151 17 -55 15 -146 -3 -190 -36 -85 -147 -162 -236 -162 -76 0 -140 25 -186
72 -62 65 -77 101 -77 188 -1 85 18 132 76 189 69 69 181 90 282 54z"/>
</g>
</svg>
